<mxfile host="Electron" modified="2024-11-30T16:18:08.649Z" agent="Mozilla/5.0 (Windows NT 10.0; Win64; x64) AppleWebKit/537.36 (KHTML, like Gecko) draw.io/22.0.2 Chrome/114.0.5735.289 Electron/25.8.4 Safari/537.36" etag="DWedp7UdKDWdV5JLFFSt" version="22.0.2" type="device">
  <diagram name="Page-1" id="U8pL67H3mKZdyEpjexQA">
    <mxGraphModel dx="1047" dy="540" grid="1" gridSize="10" guides="1" tooltips="1" connect="1" arrows="1" fold="1" page="1" pageScale="1" pageWidth="827" pageHeight="1169" math="0" shadow="0">
      <root>
        <mxCell id="0" />
        <mxCell id="1" parent="0" />
        <mxCell id="BqZBBj4OeminQfhaGTYy-5" value="" style="shape=mxgraph.cisco.computers_and_peripherals.ibm_mainframe;html=1;pointerEvents=1;dashed=0;fillColor=#036897;strokeColor=#ffffff;strokeWidth=2;verticalLabelPosition=bottom;verticalAlign=top;align=center;outlineConnect=0;" vertex="1" parent="1">
          <mxGeometry x="265" y="330" width="50" height="70" as="geometry" />
        </mxCell>
        <mxCell id="BqZBBj4OeminQfhaGTYy-6" value="Attacker&lt;br&gt;" style="shape=mxgraph.cisco.computers_and_peripherals.pc;html=1;pointerEvents=1;dashed=0;fillColor=#036897;strokeColor=#ffffff;strokeWidth=2;verticalLabelPosition=bottom;verticalAlign=top;align=center;outlineConnect=0;" vertex="1" parent="1">
          <mxGeometry x="40" y="330" width="78" height="70" as="geometry" />
        </mxCell>
        <mxCell id="BqZBBj4OeminQfhaGTYy-7" style="edgeStyle=orthogonalEdgeStyle;rounded=0;orthogonalLoop=1;jettySize=auto;html=1;exitX=0.83;exitY=0.5;exitDx=0;exitDy=0;exitPerimeter=0;entryX=0;entryY=0.5;entryDx=0;entryDy=0;entryPerimeter=0;" edge="1" parent="1" source="BqZBBj4OeminQfhaGTYy-6" target="BqZBBj4OeminQfhaGTYy-5">
          <mxGeometry relative="1" as="geometry" />
        </mxCell>
        <mxCell id="BqZBBj4OeminQfhaGTYy-8" value="connection over TOR" style="edgeLabel;html=1;align=center;verticalAlign=middle;resizable=0;points=[];" vertex="1" connectable="0" parent="BqZBBj4OeminQfhaGTYy-7">
          <mxGeometry x="0.2312" y="-4" relative="1" as="geometry">
            <mxPoint x="-24" y="-4" as="offset" />
          </mxGeometry>
        </mxCell>
        <mxCell id="BqZBBj4OeminQfhaGTYy-9" value="Victim" style="shape=mxgraph.cisco.computers_and_peripherals.laptop;html=1;pointerEvents=1;dashed=0;fillColor=#036897;strokeColor=#ffffff;strokeWidth=2;verticalLabelPosition=bottom;verticalAlign=top;align=center;outlineConnect=0;" vertex="1" parent="1">
          <mxGeometry x="540" y="432" width="80" height="60" as="geometry" />
        </mxCell>
        <mxCell id="BqZBBj4OeminQfhaGTYy-10" value="" style="verticalLabelPosition=bottom;sketch=0;html=1;fillColor=#F06650;strokeColor=#ffffff;verticalAlign=top;align=center;points=[];pointerEvents=1;shape=mxgraph.cisco_safe.compositeIcon;bgIcon=threat3;resIcon=mxgraph.cisco_safe.threat.threat_c7;" vertex="1" parent="1">
          <mxGeometry x="590" y="421.5" width="40" height="30" as="geometry" />
        </mxCell>
        <mxCell id="BqZBBj4OeminQfhaGTYy-12" value="ID:2" style="text;html=1;align=center;verticalAlign=middle;resizable=0;points=[];autosize=1;strokeColor=none;fillColor=none;" vertex="1" parent="1">
          <mxGeometry x="530" y="402" width="50" height="30" as="geometry" />
        </mxCell>
        <mxCell id="BqZBBj4OeminQfhaGTYy-16" value="" style="sketch=0;pointerEvents=1;shadow=0;dashed=0;html=1;strokeColor=none;labelPosition=center;verticalLabelPosition=bottom;verticalAlign=top;outlineConnect=0;align=center;shape=mxgraph.office.concepts.folder;fillColor=#2072B8;direction=east;" vertex="1" parent="1">
          <mxGeometry x="265" y="400.25" width="40" height="30" as="geometry" />
        </mxCell>
        <mxCell id="BqZBBj4OeminQfhaGTYy-17" value="" style="sketch=0;pointerEvents=1;shadow=0;dashed=0;html=1;strokeColor=none;labelPosition=center;verticalLabelPosition=bottom;verticalAlign=top;outlineConnect=0;align=center;shape=mxgraph.office.concepts.folder;fillColor=#2072B8;direction=east;" vertex="1" parent="1">
          <mxGeometry x="309.5" y="449.75" width="25" height="20" as="geometry" />
        </mxCell>
        <mxCell id="BqZBBj4OeminQfhaGTYy-18" value="Modules" style="text;html=1;align=center;verticalAlign=middle;resizable=0;points=[];autosize=1;strokeColor=none;fillColor=none;" vertex="1" parent="1">
          <mxGeometry x="327" y="444.75" width="70" height="30" as="geometry" />
        </mxCell>
        <mxCell id="BqZBBj4OeminQfhaGTYy-27" value="" style="endArrow=classic;html=1;rounded=0;fontSize=26;" edge="1" parent="1" source="BqZBBj4OeminQfhaGTYy-17">
          <mxGeometry width="50" height="50" relative="1" as="geometry">
            <mxPoint x="319.5" y="479.75" as="sourcePoint" />
            <mxPoint x="354.5" y="509.75" as="targetPoint" />
            <Array as="points">
              <mxPoint x="322.5" y="509.75" />
            </Array>
          </mxGeometry>
        </mxCell>
        <mxCell id="BqZBBj4OeminQfhaGTYy-30" value="System Enumeration Module" style="edgeLabel;html=1;align=center;verticalAlign=middle;resizable=0;points=[];" vertex="1" connectable="0" parent="BqZBBj4OeminQfhaGTYy-27">
          <mxGeometry x="0.8682" relative="1" as="geometry">
            <mxPoint x="85" as="offset" />
          </mxGeometry>
        </mxCell>
        <mxCell id="BqZBBj4OeminQfhaGTYy-31" value="" style="endArrow=classic;html=1;rounded=0;fontSize=26;" edge="1" parent="1" source="BqZBBj4OeminQfhaGTYy-17">
          <mxGeometry width="50" height="50" relative="1" as="geometry">
            <mxPoint x="332.5" y="479.75" as="sourcePoint" />
            <mxPoint x="354.5" y="489.75" as="targetPoint" />
            <Array as="points">
              <mxPoint x="322.5" y="489.75" />
              <mxPoint x="334.5" y="489.75" />
            </Array>
          </mxGeometry>
        </mxCell>
        <mxCell id="BqZBBj4OeminQfhaGTYy-33" value="&amp;nbsp;Ransomware Module" style="edgeLabel;html=1;align=center;verticalAlign=middle;resizable=0;points=[];" vertex="1" connectable="0" parent="1">
          <mxGeometry x="414.5043768615917" y="489.75" as="geometry" />
        </mxCell>
        <mxCell id="BqZBBj4OeminQfhaGTYy-37" value="" style="endArrow=classic;html=1;rounded=0;fontSize=26;" edge="1" parent="1" source="BqZBBj4OeminQfhaGTYy-17">
          <mxGeometry width="50" height="50" relative="1" as="geometry">
            <mxPoint x="324.5" y="509.75" as="sourcePoint" />
            <mxPoint x="354.5" y="529.75" as="targetPoint" />
            <Array as="points">
              <mxPoint x="322.5" y="529.75" />
            </Array>
          </mxGeometry>
        </mxCell>
        <mxCell id="BqZBBj4OeminQfhaGTYy-38" value="LAN scan Module (portscan)" style="edgeLabel;html=1;align=center;verticalAlign=middle;resizable=0;points=[];" vertex="1" connectable="0" parent="1">
          <mxGeometry x="434.50072732272474" y="529.7500000000001" as="geometry" />
        </mxCell>
        <mxCell id="BqZBBj4OeminQfhaGTYy-41" value="" style="endArrow=classic;html=1;rounded=0;fontSize=26;" edge="1" parent="1" source="BqZBBj4OeminQfhaGTYy-17">
          <mxGeometry width="50" height="50" relative="1" as="geometry">
            <mxPoint x="314.5" y="549.75" as="sourcePoint" />
            <mxPoint x="354.5" y="549.75" as="targetPoint" />
            <Array as="points">
              <mxPoint x="322.5" y="549.75" />
            </Array>
          </mxGeometry>
        </mxCell>
        <mxCell id="BqZBBj4OeminQfhaGTYy-43" value="DDos Module" style="text;html=1;align=center;verticalAlign=middle;resizable=0;points=[];autosize=1;strokeColor=none;fillColor=none;" vertex="1" parent="1">
          <mxGeometry x="349.5" y="534.75" width="100" height="30" as="geometry" />
        </mxCell>
        <mxCell id="BqZBBj4OeminQfhaGTYy-52" value="" style="sketch=0;pointerEvents=1;shadow=0;dashed=0;html=1;strokeColor=none;labelPosition=center;verticalLabelPosition=bottom;verticalAlign=top;outlineConnect=0;align=center;shape=mxgraph.office.concepts.folder;fillColor=#2072B8;direction=east;" vertex="1" parent="1">
          <mxGeometry x="610" y="484" width="25" height="20" as="geometry" />
        </mxCell>
        <mxCell id="BqZBBj4OeminQfhaGTYy-53" value="" style="endArrow=classic;html=1;rounded=0;fontSize=26;" edge="1" parent="1" source="BqZBBj4OeminQfhaGTYy-52">
          <mxGeometry width="50" height="50" relative="1" as="geometry">
            <mxPoint x="620" y="514" as="sourcePoint" />
            <mxPoint x="655" y="544" as="targetPoint" />
            <Array as="points">
              <mxPoint x="623" y="544" />
            </Array>
          </mxGeometry>
        </mxCell>
        <mxCell id="BqZBBj4OeminQfhaGTYy-54" value="&amp;nbsp;Encryption Keys" style="edgeLabel;html=1;align=center;verticalAlign=middle;resizable=0;points=[];" vertex="1" connectable="0" parent="BqZBBj4OeminQfhaGTYy-53">
          <mxGeometry x="0.8682" relative="1" as="geometry">
            <mxPoint x="50" y="-2" as="offset" />
          </mxGeometry>
        </mxCell>
        <mxCell id="BqZBBj4OeminQfhaGTYy-55" value="" style="endArrow=classic;html=1;rounded=0;fontSize=26;" edge="1" parent="1" source="BqZBBj4OeminQfhaGTYy-52">
          <mxGeometry width="50" height="50" relative="1" as="geometry">
            <mxPoint x="633" y="514" as="sourcePoint" />
            <mxPoint x="655" y="524" as="targetPoint" />
            <Array as="points">
              <mxPoint x="623" y="524" />
              <mxPoint x="635" y="524" />
            </Array>
          </mxGeometry>
        </mxCell>
        <mxCell id="BqZBBj4OeminQfhaGTYy-56" value="Modules" style="edgeLabel;html=1;align=center;verticalAlign=middle;resizable=0;points=[];" vertex="1" connectable="0" parent="1">
          <mxGeometry x="680.0043768615917" y="521.5" as="geometry">
            <mxPoint x="3" y="2" as="offset" />
          </mxGeometry>
        </mxCell>
        <mxCell id="BqZBBj4OeminQfhaGTYy-57" value="" style="endArrow=classic;html=1;rounded=0;fontSize=26;" edge="1" parent="1" source="BqZBBj4OeminQfhaGTYy-52">
          <mxGeometry width="50" height="50" relative="1" as="geometry">
            <mxPoint x="625" y="544" as="sourcePoint" />
            <mxPoint x="655" y="564" as="targetPoint" />
            <Array as="points">
              <mxPoint x="623" y="564" />
            </Array>
          </mxGeometry>
        </mxCell>
        <mxCell id="BqZBBj4OeminQfhaGTYy-58" value="Config.json" style="edgeLabel;html=1;align=center;verticalAlign=middle;resizable=0;points=[];" vertex="1" connectable="0" parent="1">
          <mxGeometry x="690.0007273227247" y="564.0000000000001" as="geometry" />
        </mxCell>
        <mxCell id="BqZBBj4OeminQfhaGTYy-62" value="Victim agent" style="text;html=1;align=center;verticalAlign=middle;resizable=0;points=[];autosize=1;strokeColor=none;fillColor=none;" vertex="1" parent="1">
          <mxGeometry x="610" y="421.5" width="90" height="30" as="geometry" />
        </mxCell>
        <mxCell id="BqZBBj4OeminQfhaGTYy-63" value="Victim" style="shape=mxgraph.cisco.computers_and_peripherals.laptop;html=1;pointerEvents=1;dashed=0;fillColor=#036897;strokeColor=#ffffff;strokeWidth=2;verticalLabelPosition=bottom;verticalAlign=top;align=center;outlineConnect=0;" vertex="1" parent="1">
          <mxGeometry x="540" y="270" width="80" height="60" as="geometry" />
        </mxCell>
        <mxCell id="BqZBBj4OeminQfhaGTYy-64" value="" style="verticalLabelPosition=bottom;sketch=0;html=1;fillColor=#F06650;strokeColor=#ffffff;verticalAlign=top;align=center;points=[];pointerEvents=1;shape=mxgraph.cisco_safe.compositeIcon;bgIcon=threat3;resIcon=mxgraph.cisco_safe.threat.threat_c7;" vertex="1" parent="1">
          <mxGeometry x="590" y="259.5" width="40" height="30" as="geometry" />
        </mxCell>
        <mxCell id="BqZBBj4OeminQfhaGTYy-65" value="ID:1" style="text;html=1;align=center;verticalAlign=middle;resizable=0;points=[];autosize=1;strokeColor=none;fillColor=none;" vertex="1" parent="1">
          <mxGeometry x="530" y="240" width="50" height="30" as="geometry" />
        </mxCell>
        <mxCell id="BqZBBj4OeminQfhaGTYy-66" value="" style="sketch=0;pointerEvents=1;shadow=0;dashed=0;html=1;strokeColor=none;labelPosition=center;verticalLabelPosition=bottom;verticalAlign=top;outlineConnect=0;align=center;shape=mxgraph.office.concepts.folder;fillColor=#2072B8;direction=east;" vertex="1" parent="1">
          <mxGeometry x="610" y="322" width="25" height="20" as="geometry" />
        </mxCell>
        <mxCell id="BqZBBj4OeminQfhaGTYy-67" value="" style="endArrow=classic;html=1;rounded=0;fontSize=26;" edge="1" parent="1" source="BqZBBj4OeminQfhaGTYy-66">
          <mxGeometry width="50" height="50" relative="1" as="geometry">
            <mxPoint x="620" y="352" as="sourcePoint" />
            <mxPoint x="655" y="382" as="targetPoint" />
            <Array as="points">
              <mxPoint x="623" y="382" />
            </Array>
          </mxGeometry>
        </mxCell>
        <mxCell id="BqZBBj4OeminQfhaGTYy-68" value="&amp;nbsp;Encryption Keys" style="edgeLabel;html=1;align=center;verticalAlign=middle;resizable=0;points=[];" vertex="1" connectable="0" parent="BqZBBj4OeminQfhaGTYy-67">
          <mxGeometry x="0.8682" relative="1" as="geometry">
            <mxPoint x="50" y="-2" as="offset" />
          </mxGeometry>
        </mxCell>
        <mxCell id="BqZBBj4OeminQfhaGTYy-69" value="" style="endArrow=classic;html=1;rounded=0;fontSize=26;" edge="1" parent="1" source="BqZBBj4OeminQfhaGTYy-66">
          <mxGeometry width="50" height="50" relative="1" as="geometry">
            <mxPoint x="633" y="352" as="sourcePoint" />
            <mxPoint x="655" y="362" as="targetPoint" />
            <Array as="points">
              <mxPoint x="623" y="362" />
              <mxPoint x="635" y="362" />
            </Array>
          </mxGeometry>
        </mxCell>
        <mxCell id="BqZBBj4OeminQfhaGTYy-70" value="Modules" style="edgeLabel;html=1;align=center;verticalAlign=middle;resizable=0;points=[];" vertex="1" connectable="0" parent="1">
          <mxGeometry x="680.0043768615917" y="359.5" as="geometry">
            <mxPoint x="3" y="2" as="offset" />
          </mxGeometry>
        </mxCell>
        <mxCell id="BqZBBj4OeminQfhaGTYy-71" value="" style="endArrow=classic;html=1;rounded=0;fontSize=26;" edge="1" parent="1" source="BqZBBj4OeminQfhaGTYy-66">
          <mxGeometry width="50" height="50" relative="1" as="geometry">
            <mxPoint x="625" y="382" as="sourcePoint" />
            <mxPoint x="655" y="402" as="targetPoint" />
            <Array as="points">
              <mxPoint x="623" y="402" />
            </Array>
          </mxGeometry>
        </mxCell>
        <mxCell id="BqZBBj4OeminQfhaGTYy-72" value="Config.json" style="edgeLabel;html=1;align=center;verticalAlign=middle;resizable=0;points=[];" vertex="1" connectable="0" parent="1">
          <mxGeometry x="690.0007273227247" y="402.0000000000001" as="geometry" />
        </mxCell>
        <mxCell id="BqZBBj4OeminQfhaGTYy-73" value="Victim agent" style="text;html=1;align=center;verticalAlign=middle;resizable=0;points=[];autosize=1;strokeColor=none;fillColor=none;" vertex="1" parent="1">
          <mxGeometry x="610" y="259.5" width="90" height="30" as="geometry" />
        </mxCell>
        <mxCell id="BqZBBj4OeminQfhaGTYy-77" value="" style="endArrow=none;html=1;rounded=0;" edge="1" parent="1" target="BqZBBj4OeminQfhaGTYy-16">
          <mxGeometry width="50" height="50" relative="1" as="geometry">
            <mxPoint x="285" y="619.75" as="sourcePoint" />
            <mxPoint x="317" y="529.75" as="targetPoint" />
          </mxGeometry>
        </mxCell>
        <mxCell id="BqZBBj4OeminQfhaGTYy-78" value="" style="endArrow=classic;html=1;rounded=0;fontSize=26;" edge="1" parent="1">
          <mxGeometry width="50" height="50" relative="1" as="geometry">
            <mxPoint x="285" y="459.6" as="sourcePoint" />
            <mxPoint x="307" y="459.75" as="targetPoint" />
          </mxGeometry>
        </mxCell>
        <mxCell id="BqZBBj4OeminQfhaGTYy-86" value="" style="sketch=0;pointerEvents=1;shadow=0;dashed=0;html=1;strokeColor=none;labelPosition=center;verticalLabelPosition=bottom;verticalAlign=top;outlineConnect=0;align=center;shape=mxgraph.office.concepts.folder;fillColor=#2072B8;direction=east;" vertex="1" parent="1">
          <mxGeometry x="309.5" y="564.75" width="25" height="20" as="geometry" />
        </mxCell>
        <mxCell id="BqZBBj4OeminQfhaGTYy-87" value="" style="endArrow=classic;html=1;rounded=0;fontSize=26;" edge="1" parent="1" source="BqZBBj4OeminQfhaGTYy-86">
          <mxGeometry width="50" height="50" relative="1" as="geometry">
            <mxPoint x="319.5" y="594.75" as="sourcePoint" />
            <mxPoint x="354.5" y="624.75" as="targetPoint" />
            <Array as="points">
              <mxPoint x="322.5" y="624.75" />
            </Array>
          </mxGeometry>
        </mxCell>
        <mxCell id="BqZBBj4OeminQfhaGTYy-88" value="Exfil data" style="edgeLabel;html=1;align=center;verticalAlign=middle;resizable=0;points=[];" vertex="1" connectable="0" parent="BqZBBj4OeminQfhaGTYy-87">
          <mxGeometry x="0.8682" relative="1" as="geometry">
            <mxPoint x="37" as="offset" />
          </mxGeometry>
        </mxCell>
        <mxCell id="BqZBBj4OeminQfhaGTYy-89" value="" style="endArrow=classic;html=1;rounded=0;fontSize=26;" edge="1" parent="1" source="BqZBBj4OeminQfhaGTYy-86">
          <mxGeometry width="50" height="50" relative="1" as="geometry">
            <mxPoint x="332.5" y="594.75" as="sourcePoint" />
            <mxPoint x="354.5" y="604.75" as="targetPoint" />
            <Array as="points">
              <mxPoint x="322.5" y="604.75" />
              <mxPoint x="334.5" y="604.75" />
            </Array>
          </mxGeometry>
        </mxCell>
        <mxCell id="BqZBBj4OeminQfhaGTYy-90" value="&amp;nbsp; Encryption Keys" style="edgeLabel;html=1;align=center;verticalAlign=middle;resizable=0;points=[];" vertex="1" connectable="0" parent="1">
          <mxGeometry x="400.0043768615917" y="604.75" as="geometry" />
        </mxCell>
        <mxCell id="BqZBBj4OeminQfhaGTYy-91" value="" style="endArrow=classic;html=1;rounded=0;fontSize=26;" edge="1" parent="1">
          <mxGeometry width="50" height="50" relative="1" as="geometry">
            <mxPoint x="285" y="574.6" as="sourcePoint" />
            <mxPoint x="307" y="574.75" as="targetPoint" />
          </mxGeometry>
        </mxCell>
        <mxCell id="BqZBBj4OeminQfhaGTYy-92" value="Victim1" style="text;html=1;align=center;verticalAlign=middle;resizable=0;points=[];autosize=1;strokeColor=none;fillColor=none;" vertex="1" parent="1">
          <mxGeometry x="327" y="559.75" width="60" height="30" as="geometry" />
        </mxCell>
        <mxCell id="BqZBBj4OeminQfhaGTYy-93" style="edgeStyle=orthogonalEdgeStyle;rounded=0;orthogonalLoop=1;jettySize=auto;html=1;exitX=1;exitY=0.5;exitDx=0;exitDy=0;exitPerimeter=0;entryX=0.28;entryY=0.5;entryDx=0;entryDy=0;entryPerimeter=0;" edge="1" parent="1" source="BqZBBj4OeminQfhaGTYy-5" target="BqZBBj4OeminQfhaGTYy-63">
          <mxGeometry relative="1" as="geometry">
            <Array as="points">
              <mxPoint x="430" y="365" />
              <mxPoint x="430" y="300" />
            </Array>
          </mxGeometry>
        </mxCell>
        <mxCell id="BqZBBj4OeminQfhaGTYy-94" style="edgeStyle=orthogonalEdgeStyle;rounded=0;orthogonalLoop=1;jettySize=auto;html=1;exitX=1;exitY=0.5;exitDx=0;exitDy=0;exitPerimeter=0;entryX=0.28;entryY=0.5;entryDx=0;entryDy=0;entryPerimeter=0;" edge="1" parent="1" source="BqZBBj4OeminQfhaGTYy-5" target="BqZBBj4OeminQfhaGTYy-9">
          <mxGeometry relative="1" as="geometry">
            <Array as="points">
              <mxPoint x="430" y="365" />
              <mxPoint x="430" y="462" />
            </Array>
          </mxGeometry>
        </mxCell>
        <mxCell id="BqZBBj4OeminQfhaGTYy-95" value="&lt;font style=&quot;font-size: 18px;&quot;&gt;...&lt;/font&gt;" style="text;html=1;align=center;verticalAlign=middle;resizable=0;points=[];autosize=1;strokeColor=none;fillColor=none;" vertex="1" parent="1">
          <mxGeometry x="274.5" y="615" width="40" height="40" as="geometry" />
        </mxCell>
        <mxCell id="BqZBBj4OeminQfhaGTYy-96" value="Server" style="text;html=1;align=center;verticalAlign=middle;resizable=0;points=[];autosize=1;strokeColor=none;fillColor=none;" vertex="1" parent="1">
          <mxGeometry x="260" y="300" width="60" height="30" as="geometry" />
        </mxCell>
      </root>
    </mxGraphModel>
  </diagram>
</mxfile>
